<svg xmlns="http://www.w3.org/2000/svg" viewBox="0 0 800 450" role="img" aria-labelledby="title desc">
  <title id="title">Silueta humana de gemelos</title>
  <desc id="desc">Figura humana estilizada elevándose sobre las puntas de los pies.</desc>
  <defs>
    <linearGradient id="bg" x1="0" x2="1" y1="0" y2="1">
      <stop offset="0%" stop-color="#0f172a"/>
      <stop offset="100%" stop-color="#020617"/>
    </linearGradient>
    <linearGradient id="bar" x1="0" x2="1" y1="0" y2="0">
      <stop offset="0%" stop-color="#facc15"/>
      <stop offset="100%" stop-color="#34d399"/>
    </linearGradient>
  </defs>
  <rect width="800" height="450" rx="30" fill="url(#bg)"/>
  <g opacity="0.14" stroke="#cbd5e1" stroke-width="2">
    <path d="M72 332h656"/>
  </g>
  <g transform="translate(250 84)">
    <ellipse cx="120" cy="298" rx="84" ry="18" fill="#0b1220" opacity="0.55"/>
    <circle cx="118" cy="66" r="30" fill="#e2e8f0">
      <animate attributeName="cy" values="66;60;66" dur="1.1s" repeatCount="indefinite"/>
    </circle>
    <path d="M100 96c10 14 14 30 14 50v42c0 14 10 24 24 24h12c14 0 24-10 24-24v-42c0-18 4-34 14-48l8-10c6-8 3-20-7-25l-18-8c-12-5-26-5-38 0l-14 6c-10 5-14 17-9 26z" fill="#e2e8f0">
      <animate attributeName="d" values="M100 96c10 14 14 30 14 50v42c0 14 10 24 24 24h12c14 0 24-10 24-24v-42c0-18 4-34 14-48l8-10c6-8 3-20-7-25l-18-8c-12-5-26-5-38 0l-14 6c-10 5-14 17-9 26z;M100 100c8 12 12 26 12 44v48c0 14 10 24 24 24h12c14 0 24-10 24-24v-48c0-16 4-30 14-44l8-10c6-8 3-20-7-25l-18-8c-12-5-26-5-38 0l-14 6c-10 5-14 17-9 26z;M100 96c10 14 14 30 14 50v42c0 14 10 24 24 24h12c14 0 24-10 24-24v-42c0-18 4-34 14-48l8-10c6-8 3-20-7-25l-18-8c-12-5-26-5-38 0l-14 6c-10 5-14 17-9 26z" dur="1.1s" repeatCount="indefinite"/>
    </path>
    <path d="M94 160c-10 22-16 42-18 58" stroke="#e2e8f0" stroke-width="16" stroke-linecap="round" fill="none"/>
    <path d="M146 160c12 22 18 42 20 58" stroke="#e2e8f0" stroke-width="16" stroke-linecap="round" fill="none"/>
    <rect x="70" y="228" width="96" height="16" rx="8" fill="url(#bar)">
      <animate attributeName="y" values="228;214;228" dur="1.1s" repeatCount="indefinite"/>
    </rect>
    <path d="M96 244l-10 42" stroke="#e2e8f0" stroke-width="16" stroke-linecap="round"/>
    <path d="M148 244l10 42" stroke="#e2e8f0" stroke-width="16" stroke-linecap="round"/>
    <path d="M88 286h28" stroke="#facc15" stroke-width="16" stroke-linecap="round">
      <animate attributeName="d" values="M88 286h28;M84 278h36;M88 286h28" dur="1.1s" repeatCount="indefinite"/>
    </path>
    <path d="M124 286h28" stroke="#34d399" stroke-width="16" stroke-linecap="round">
      <animate attributeName="d" values="M124 286h28;M120 278h36;M124 286h28" dur="1.1s" repeatCount="indefinite"/>
    </path>
  </g>
  <text x="50%" y="392" text-anchor="middle" fill="#e2e8f0" font-family="Inter, Arial, sans-serif" font-size="26" font-weight="700">Gemelos · silueta humana local</text>
</svg>
